HIERARCHY
ROOT hip
{
	OFFSET 0.000000 0.000000 0.000000
	CHANNELS 6 Xposition Yposition Zposition Xrotation Zrotation Yrotation 
	JOINT abdomen
	{
		OFFSET 0.000000 3.422050 0.000000
		CHANNELS 3 Xrotation Zrotation Yrotation 
		JOINT chest
		{
			OFFSET 0.000000 8.486693 -0.684411
			CHANNELS 3 Xrotation Zrotation Yrotation 
			JOINT neck
			{
				OFFSET 0.000000 10.266162 -0.273764
				CHANNELS 3 Xrotation Zrotation Yrotation 
				JOINT head
				{
					OFFSET 0.000000 3.148285 0.000000
					CHANNELS 3 Xrotation Zrotation Yrotation 
					End Site
					{
						OFFSET 0.000000 3.148289 0.000000
					}
				}
			}
			JOINT lCollar
			{
				OFFSET 3.422053 6.707223 -0.821293
				CHANNELS 3 Yrotation Zrotation Xrotation 
				JOINT lShldr
				{
					OFFSET 3.285171 0.000000 0.000000
					CHANNELS 3 Zrotation Yrotation Xrotation 
					JOINT lForeArm
					{
						OFFSET 10.129278 0.000000 0.000000
						CHANNELS 3 Yrotation Zrotation Xrotation 
						JOINT lHand
						{
							OFFSET 8.486692 0.000000 0.000000
							CHANNELS 3 Zrotation Yrotation Xrotation 
							End Site
							{
								OFFSET 4.106464 0.000000 0.000000
							}
						}
					}
				}
			}
			JOINT rCollar
			{
				OFFSET -3.558935 6.707223 -0.821293
				CHANNELS 3 Yrotation Zrotation Xrotation 
				JOINT rShldr
				{
					OFFSET -3.148289 0.000000 0.000000
					CHANNELS 3 Zrotation Yrotation Xrotation 
					JOINT rForeArm
					{
						OFFSET -10.266159 0.000000 0.000000
						CHANNELS 3 Yrotation Zrotation Xrotation 
						JOINT rHand
						{
							OFFSET -8.349810 0.000000 0.000000
							CHANNELS 3 Zrotation Yrotation Xrotation 
							End Site
							{
								OFFSET -4.106464 0.000000 0.000000
							}
						}
					}
				}
			}
		}
	}
	JOINT lThigh
	{
		OFFSET 5.338403 -1.642589 1.368821
		CHANNELS 3 Xrotation Zrotation Yrotation 
		JOINT lShin
		{
			OFFSET -2.053232 -20.121670 0.000000
			CHANNELS 3 Xrotation Zrotation Yrotation 
			JOINT lFoot
			{
				OFFSET 0.000000 -19.300380 -1.231939
				CHANNELS 3 Xrotation Yrotation Zrotation 
				End Site
				{
					OFFSET 0.000000 -2.463878 4.653993
				}
			}
		}
	}
	JOINT rThigh
	{
		OFFSET -5.338403 -1.642589 1.368821
		CHANNELS 3 Xrotation Zrotation Yrotation 
		JOINT rShin
		{
			OFFSET 2.053232 -20.121670 0.000000
			CHANNELS 3 Xrotation Zrotation Yrotation 
			JOINT rFoot
			{
				OFFSET 0.000000 -19.300380 -1.231939
				CHANNELS 3 Xrotation Yrotation Zrotation 
				End Site
				{
					OFFSET 0.000000 -2.463878 4.653993
				}
			}
		}
	}
}
MOTION
Frames: 8
Frame Time: 0.033264
-3.493653 14.430685 22.940460 95.122772 -0.000001 0.000001 -10.300613 -0.070107 -0.323807 -5.736635 -0.684382 -1.691435 -22.601564 0.000000 0.000000 -7.541204 0.000000 0.000000 -37.279766 8.324387 -8.708518 4.325796 -12.548170 -0.664168 -28.998150 29.574183 -1.142831 19.120800 -5.771796 -9.092261 38.187431 -8.099532 -9.244569 -4.514287 12.939586 -0.552694 30.012146 -25.059900 0.585749 -18.415426 4.392223 -8.582464 -43.546974 1.004769 1.139011 44.883736 0.222145 -2.233377 12.481055 0.978998 4.972963 -43.552383 -1.024873 -1.134369 41.071259 0.468950 2.220776 12.492043 -0.967474 -4.991782 
-3.493953 14.502174 22.911325 95.750198 -0.000001 0.000001 -10.125556 -0.070127 -0.323779 -7.191283 -0.684434 -1.691488 -22.200891 0.000000 0.000000 -7.185517 0.000000 0.000000 -37.476002 7.978587 -8.511824 4.325796 -12.548170 -0.664168 -28.868734 29.475952 -1.204771 18.976427 -5.987186 -8.907494 38.397434 -7.766170 -9.041389 -4.514287 12.939586 -0.552694 29.864504 -24.963568 0.525132 -18.273129 4.614890 -8.397347 -44.392479 1.011679 1.180243 44.908344 0.226861 -2.233178 12.481055 0.978998 4.972963 -44.397823 -1.030797 -1.175460 41.049812 0.472979 2.220740 12.492043 -0.967474 -4.991782 
-3.494253 14.573664 22.882189 96.377533 -0.000001 0.000001 -9.950504 -0.070147 -0.323751 -8.644993 -0.684488 -1.691541 -21.800249 0.000000 0.000000 -6.829843 0.000000 0.000000 -37.670860 7.632145 -8.316501 4.325796 -12.548170 -0.664168 -28.739565 29.377604 -1.266398 18.831301 -6.202102 -8.722111 38.606091 -7.432098 -8.839614 -4.514287 12.939586 -0.552694 29.717098 -24.867096 0.464837 -18.130070 4.837089 -8.211622 -45.237793 1.019195 1.221358 44.932957 0.231577 -2.232977 12.481055 0.978998 4.972963 -45.243061 -1.037324 -1.216450 41.028370 0.477008 2.220704 12.492043 -0.967474 -4.991782 
-3.494554 14.645153 22.853054 97.004776 -0.000001 0.000001 -9.775452 -0.070168 -0.323723 -10.097300 -0.684543 -1.691591 -21.399626 0.000000 0.000000 -6.474190 0.000000 0.000000 -37.864346 7.285076 -8.122534 4.325796 -12.548170 -0.664168 -28.610641 29.279133 -1.327711 18.685425 -6.416541 -8.536113 38.813374 -7.097327 -8.639233 -4.514287 12.939586 -0.552694 29.569908 -24.770475 0.404863 -17.986246 5.058815 -8.025287 -46.082851 1.027314 1.262346 44.957573 0.236293 -2.232774 12.481055 0.978998 4.972963 -46.088017 -1.044453 -1.257326 41.006924 0.481037 2.220665 12.492043 -0.967474 -4.991782 
-3.494854 14.716642 22.823917 97.631844 -0.000001 0.000001 -9.600404 -0.070188 -0.323696 -11.547737 -0.684599 -1.691640 -20.999048 0.000000 0.000000 -6.118564 0.000000 0.000000 -38.056488 6.937403 -7.929919 4.325796 -12.548170 -0.664168 -28.481964 29.180546 -1.388708 18.538794 -6.630495 -8.349498 39.019302 -6.761880 -8.440235 -4.514287 12.939586 -0.552694 29.422953 -24.673723 0.345209 -17.841660 5.280059 -7.838340 -46.927517 1.036032 1.303191 44.982182 0.241008 -2.232570 12.481055 0.978998 4.972963 -46.932606 -1.052181 -1.298075 40.985477 0.485066 2.220626 12.492043 -0.967474 -4.991782 
-3.495154 14.788132 22.794781 98.258751 -0.000001 0.000001 -9.425362 -0.070208 -0.323668 -12.995844 -0.684656 -1.691687 -20.598520 0.000000 0.000000 -5.762971 0.000000 0.000000 -38.247284 6.589141 -7.738644 4.325796 -12.548170 -0.664168 -28.353531 29.081839 -1.449395 18.391409 -6.843958 -8.162264 39.223900 -6.425776 -8.242618 -4.514287 12.939586 -0.552694 29.276226 -24.576838 0.285877 -17.696310 5.500816 -7.650780 -47.771713 1.045347 1.343881 45.006798 0.245724 -2.232363 12.481055 0.978998 4.972963 -47.776737 -1.060503 -1.338683 40.964031 0.489095 2.220584 12.492043 -0.967474 -4.991782 
-3.495455 14.859621 22.765646 98.885429 -0.000001 0.000001 -9.250320 -0.070229 -0.323641 -14.441172 -0.684714 -1.691733 -20.198046 0.000000 0.000000 -5.407421 0.000000 0.000000 -38.436749 6.240310 -7.548699 4.325796 -12.548170 -0.664168 -28.225351 28.983021 -1.509767 18.243269 -7.056921 -7.974407 39.427158 -6.089030 -8.046367 -4.514287 12.939586 -0.552694 29.129728 -24.479816 0.226863 -17.550182 5.721074 -7.462600 -48.615353 1.055253 1.384403 45.031395 0.250439 -2.232154 12.481055 0.978998 4.972963 -48.620308 -1.069417 -1.379138 40.942593 0.493124 2.220542 12.492043 -0.967474 -4.991782 
-3.495755 14.931110 22.736509 99.511818 -0.000001 0.000001 -9.075286 -0.070249 -0.323613 -15.883268 -0.684774 -1.691777 -19.797649 0.000000 0.000000 -5.051917 0.000000 0.000000 -38.624889 5.890929 -7.360075 4.325796 -12.548170 -0.664168 -28.097410 28.884081 -1.569828 18.094372 -7.269379 -7.785931 39.629097 -5.751664 -7.851476 -4.514287 12.939586 -0.552694 28.983458 -24.382658 0.168170 -17.403297 5.940832 -7.273807 -49.458344 1.065746 1.424745 45.056011 0.255154 -2.231943 12.481055 0.978998 4.972963 -49.463219 -1.078918 -1.419427 40.921143 0.497152 2.220497 12.492043 -0.967474 -4.991782 
